# xmcd CD database file generated by Grip 2.94
# 
# Track frame offsets:
#       182
#       12605
#       26630
#       41775
#       56407
#       71250
#       85050
#       97830
#       110625
#       124237
#       138402
#       154257
#       169650
#       184985
#       197135
#       208617
#       221952
#       234327
#       246722
#       261910
#       274630
#       290067
# 
# Disc length: 4223 seconds
# 
# Revision: 3
# Processed by: cddbd v1.4b41PL1 Copyright (c) Steve Scherf et al.
# Submitted via: Grip 2.94
# 
DISCID=54107d16
DTITLE=Lena Horne - The Fabulous Lena Horne
DYEAR=1900
DGENRE=
TTITLE0=I Take To You
TTITLE1=That's What Love Did To Me
TTITLE2=Good-For-Nothin' Joe
TTITLE3=You're My Thrill
TTITLE4=All I Desire
TTITLE5=St. Louis Blues
TTITLE6=Careless Love
TTITLE7=Aunt Hagar's Blues
TTITLE8=Beale Street Blues
TTITLE9=Don't Take Your Love From Me
TTITLE10=Out Of Nowhere
TTITLE11=Prisoner Of Love
TTITLE12=Stormy Weather
TTITLE13=What's This Thing Called Love
TTITLE14=Ill Wind
TTITLE15=Mad About The Boy
TTITLE16=Moanin' Low
TTITLE17=Where Or When
TTITLE18=One For My Baby And One More For The Road
TTITLE19=As Long As I Live
TTITLE20=How Long Has This Been Going On?
TTITLE21=Frankie and Johnny
EXTD=
EXTT0=
EXTT1=
EXTT2=
EXTT3=
EXTT4=
EXTT5=
EXTT6=
EXTT7=
EXTT8=
EXTT9=
EXTT10=
EXTT11=
EXTT12=
EXTT13=
EXTT14=
EXTT15=
EXTT16=
EXTT17=
EXTT18=
EXTT19=
EXTT20=
EXTT21=
PLAYORDER=
